<svg width="200" height="200" viewBox="0 0 200 200" xmlns="http://www.w3.org/2000/svg">
  <!-- Outer border - three concentric rings: yellow, dark green, yellow -->
  <circle cx="100" cy="100" r="98" fill="hsl(45, 100%, 50%)" stroke="none"/>
  <circle cx="100" cy="100" r="95" fill="hsl(142, 76%, 20%)" stroke="none"/>
  <circle cx="100" cy="100" r="92" fill="hsl(45, 100%, 50%)" stroke="none"/>
  
  <!-- White background circle -->
  <circle cx="100" cy="100" r="85" fill="white"/>
  
  <!-- Beehive shape - yellow with dark green outline -->
  <path d="M 70 130 Q 70 85, 100 85 Q 130 85, 130 130 Q 130 145, 100 165 Q 70 145, 70 130" 
        fill="hsl(45, 100%, 50%)" 
        stroke="hsl(142, 76%, 20%)" 
        stroke-width="2.5"/>
  
  <!-- Beehive entrance arch -->
  <path d="M 90 155 Q 100 150, 110 155" 
        fill="none" 
        stroke="hsl(142, 76%, 20%)" 
        stroke-width="3"
        stroke-linecap="round"/>
  
  <!-- Hexagonal cells with tools - arranged in 2-3-4 pattern -->
  
  <!-- Top row (2 cells) -->
  <!-- Left: Power drill -->
  <g transform="translate(80, 100)">
    <polygon points="0,-10 8.66,-5 8.66,5 0,10 -8.66,5 -8.66,-5" 
             fill="hsl(45, 100%, 50%)" 
             stroke="hsl(142, 76%, 20%)" 
             stroke-width="1.5"/>
    <!-- Drill body -->
    <rect x="-3" y="-4" width="6" height="8" fill="hsl(142, 76%, 20%)" rx="1"/>
    <!-- Drill bit -->
    <line x1="3" y1="0" x2="6" y2="0" stroke="hsl(142, 76%, 20%)" stroke-width="2" stroke-linecap="round"/>
  </g>
  
  <!-- Right: Hand saw -->
  <g transform="translate(120, 100)">
    <polygon points="0,-10 8.66,-5 8.66,5 0,10 -8.66,5 -8.66,-5" 
             fill="hsl(45, 100%, 50%)" 
             stroke="hsl(142, 76%, 20%)" 
             stroke-width="1.5"/>
    <!-- Saw blade -->
    <rect x="-5" y="-1" width="10" height="2" fill="hsl(142, 76%, 20%)"/>
    <!-- Saw handle -->
    <ellipse cx="0" cy="4" rx="3" ry="2" fill="hsl(142, 76%, 20%)"/>
  </g>
  
  <!-- Middle row (3 cells) -->
  <!-- Left: Hard hat -->
  <g transform="translate(70, 115)">
    <polygon points="0,-10 8.66,-5 8.66,5 0,10 -8.66,5 -8.66,-5" 
             fill="hsl(45, 100%, 50%)" 
             stroke="hsl(142, 76%, 20%)" 
             stroke-width="1.5"/>
    <!-- Helmet dome -->
    <path d="M -5 -5 Q -5 -7, 0 -7 Q 5 -7, 5 -5 L 5 2 L -5 2 Z" fill="hsl(142, 76%, 20%)"/>
    <!-- Brim -->
    <ellipse cx="0" cy="2" rx="5" ry="1.5" fill="hsl(142, 76%, 20%)"/>
  </g>
  
  <!-- Center: Trowel -->
  <g transform="translate(100, 115)">
    <polygon points="0,-10 8.66,-5 8.66,5 0,10 -8.66,5 -8.66,-5" 
             fill="hsl(45, 100%, 50%)" 
             stroke="hsl(142, 76%, 20%)" 
             stroke-width="1.5"/>
    <!-- Trowel blade -->
    <path d="M -4 -5 L 4 -5 L 4 0 L 0 5 L -4 0 Z" fill="hsl(142, 76%, 20%)"/>
    <!-- Trowel handle -->
    <rect x="-1" y="5" width="2" height="3" fill="hsl(142, 76%, 20%)" rx="1"/>
  </g>
  
  <!-- Right: Toolbox -->
  <g transform="translate(130, 115)">
    <polygon points="0,-10 8.66,-5 8.66,5 0,10 -8.66,5 -8.66,-5" 
             fill="hsl(45, 100%, 50%)" 
             stroke="hsl(142, 76%, 20%)" 
             stroke-width="1.5"/>
    <!-- Toolbox body -->
    <rect x="-5" y="-4" width="10" height="8" fill="hsl(142, 76%, 20%)" rx="1"/>
    <!-- Toolbox handle -->
    <path d="M -3 -4 Q -3 -6, 0 -6 Q 3 -6, 3 -4" 
          fill="none" 
          stroke="hsl(45, 100%, 50%)" 
          stroke-width="1.5"
          stroke-linecap="round"/>
    <!-- Divider line -->
    <line x1="-5" y1="0" x2="5" y2="0" stroke="hsl(45, 100%, 50%)" stroke-width="1"/>
  </g>
  
  <!-- Bottom row (4 cells) -->
  <!-- Far left: Paintbrush -->
  <g transform="translate(65, 130)">
    <polygon points="0,-10 8.66,-5 8.66,5 0,10 -8.66,5 -8.66,-5" 
             fill="hsl(45, 100%, 50%)" 
             stroke="hsl(142, 76%, 20%)" 
             stroke-width="1.5"/>
    <!-- Brush handle -->
    <line x1="0" y1="-5" x2="0" y2="3" stroke="hsl(142, 76%, 20%)" stroke-width="2.5" stroke-linecap="round"/>
    <!-- Brush bristles -->
    <line x1="-2" y1="3" x2="2" y2="3" stroke="hsl(142, 76%, 20%)" stroke-width="2" stroke-linecap="round"/>
    <line x1="-1.5" y1="5" x2="1.5" y2="5" stroke="hsl(142, 76%, 20%)" stroke-width="1.5" stroke-linecap="round"/>
  </g>
  
  <!-- Second from left: Utility knife -->
  <g transform="translate(85, 130)">
    <polygon points="0,-10 8.66,-5 8.66,5 0,10 -8.66,5 -8.66,-5" 
             fill="hsl(45, 100%, 50%)" 
             stroke="hsl(142, 76%, 20%)" 
             stroke-width="1.5"/>
    <!-- Knife body -->
    <rect x="-4" y="-2" width="8" height="4" fill="hsl(142, 76%, 20%)" rx="0.5"/>
    <!-- Blade -->
    <path d="M 4 -2 L 6 0 L 4 2" fill="hsl(142, 76%, 20%)"/>
  </g>
  
  <!-- Third from left: Measuring tape -->
  <g transform="translate(105, 130)">
    <polygon points="0,-10 8.66,-5 8.66,5 0,10 -8.66,5 -8.66,-5" 
             fill="hsl(45, 100%, 50%)" 
             stroke="hsl(142, 76%, 20%)" 
             stroke-width="1.5"/>
    <!-- Tape body -->
    <rect x="-5" y="-1.5" width="10" height="3" fill="hsl(142, 76%, 20%)" rx="0.5"/>
    <!-- Tape case -->
    <ellipse cx="0" cy="0" rx="5" ry="2" fill="none" stroke="hsl(45, 100%, 50%)" stroke-width="1"/>
  </g>
  
  <!-- Far right: Spirit level -->
  <g transform="translate(135, 130)">
    <polygon points="0,-10 8.66,-5 8.66,5 0,10 -8.66,5 -8.66,-5" 
             fill="hsl(45, 100%, 50%)" 
             stroke="hsl(142, 76%, 20%)" 
             stroke-width="1.5"/>
    <!-- Level body -->
    <rect x="-5" y="-1.5" width="10" height="3" fill="hsl(142, 76%, 20%)" rx="0.5"/>
    <!-- Bubble -->
    <circle cx="0" cy="0" r="1.5" fill="hsl(45, 100%, 50%)"/>
    <circle cx="0" cy="0" r="1" fill="white"/>
  </g>
  
  <!-- TRADE HIVE text - curved along bottom -->
  <text x="100" y="175" 
        font-family="Arial, sans-serif" 
        font-size="16" 
        font-weight="bold" 
        fill="hsl(142, 76%, 20%)" 
        text-anchor="middle" 
        letter-spacing="3">
    TRADE HIVE
  </text>
</svg>
